<?xml version="1.0" encoding="utf-8"?>
<svg version="1.1" id="Layer_1" xmlns="http://www.w3.org/2000/svg" xmlns:xlink="http://www.w3.org/1999/xlink" x="0px" y="0px"
	 viewBox="0 0 16 16" style="enable-background:new 0 0 16 16;" xml:space="preserve">
<style type="text/css">
	.st0{opacity:0.1;enable-background:new    ;}
	.st1{fill:#E5E5E5;}
	.st2{fill:#FFBF0D;}
	.st3{fill:none;}
	.st4{fill:#FFFFFF;}
	.st5{fill:#25B725;}
</style>
<g>
	<g>
		<g id="Layer_1_2_">
			<path class="st0" d="M2.29,13.95h3.92v1.99H3.29c-0.27,0-0.52-0.11-0.69-0.28h0l0-0.01c0,0,0,0,0,0L1.6,14.67l0.17-0.41
				l0.53,0.32V13.95z"/>
			<path class="st0" d="M14.25,3.99v3.49h-1.99V2.99h-1c-0.55,0-1-0.45-1-1V1h1l1.99,1.99l0.13,0.13L14.25,3.99z"/>
			<path class="st1" d="M13.25,2.99v4.49h-0.99V2.99h-1c-0.55,0-1-0.45-1-1V1H2.3v12.95h3.92v1H2.3c-0.28,0-0.52-0.11-0.7-0.29
				s-0.3-0.43-0.3-0.71V1c0-0.55,0.45-1,1-1h7.97L13.25,2.99z"/>
			<line class="st3" x1="13.26" y1="2.99" x2="10.27" y2="0"/>
			<path class="st4" d="M12.26,1.99v1h-1c-0.55,0-1-0.45-1-1V1h1L12.26,1.99z"/>
			<path class="st1" d="M13.26,2.99h-1.99c-0.55,0-1-0.45-1-1V0L13.26,2.99z"/>
		</g>
	</g>
	<g>
		<rect x="5.91" y="4.5" class="st5" width="4.6" height="0.53"/>
		<rect x="5.91" y="7.22" class="st5" width="4.6" height="0.53"/>
		<rect x="5.91" y="9.91" class="st5" width="2.3" height="0.53"/>
		<polygon class="st5" points="4.07,4.54 3.76,4.21 3.37,4.57 4.05,5.28 5.2,4.2 4.84,3.81 		"/>
		<polygon class="st5" points="4.07,7.11 3.76,6.78 3.37,7.14 4.05,7.86 5.2,6.77 4.84,6.39 		"/>
		<polygon class="st5" points="4.07,9.86 3.76,9.53 3.37,9.9 4.05,10.61 5.2,9.52 4.84,9.14 		"/>
	</g>
	<path class="st0" d="M14.7,14.56v1.31c0,0.06-0.07,0.13-0.16,0.13H7.75c-0.09,0-0.14-0.07-0.14-0.13v-1.31
		c0-1.1,0.97-1.97,2.19-1.97h2.7C13.72,12.59,14.7,13.46,14.7,14.56z"/>
	<path class="st5" d="M14.07,14.56v1.31c0,0.06-0.06,0.13-0.15,0.13H7.76c-0.09,0-0.15-0.07-0.15-0.13v-1.31c0-1.1,1-1.97,2.25-1.97
		h1.96C13.07,12.59,14.07,13.46,14.07,14.56z"/>
	<path class="st0" d="M11.8,12.18h-0.77V8.55h0.77c1,0,1.81,0.81,1.81,1.81v0C13.61,11.36,12.8,12.18,11.8,12.18z"/>
	<circle class="st5" cx="11.12" cy="10.36" r="1.81"/>
</g>
</svg>
