<?xml version="1.0" encoding="UTF-8" standalone="no"?>
<svg
   xmlns:dc="http://purl.org/dc/elements/1.1/"
   xmlns:cc="http://creativecommons.org/ns#"
   xmlns:rdf="http://www.w3.org/1999/02/22-rdf-syntax-ns#"
   xmlns:svg="http://www.w3.org/2000/svg"
   xmlns="http://www.w3.org/2000/svg"
   xmlns:sodipodi="http://sodipodi.sourceforge.net/DTD/sodipodi-0.dtd"
   xmlns:inkscape="http://www.inkscape.org/namespaces/inkscape"
   version="1.1"
   id="Layer_1"
   x="0px"
   y="0px"
   viewBox="0 0 16 16"
   style="enable-background:new 0 0 16 16;"
   xml:space="preserve"
   inkscape:version="0.48.2 r9819"
   width="100%"
   height="100%"
   sodipodi:docname="acl.svg"
   inkscape:export-filename="n:\acl.png"
   inkscape:export-xdpi="2700"
   inkscape:export-ydpi="2700"><metadata
   id="metadata4936"><rdf:RDF><cc:Work
       rdf:about=""><dc:format>image/svg+xml</dc:format><dc:type
         rdf:resource="http://purl.org/dc/dcmitype/StillImage" /><dc:title></dc:title></cc:Work></rdf:RDF></metadata><defs
   id="defs4934">
	
	
	
	
	
	
</defs><sodipodi:namedview
   pagecolor="#ffffff"
   bordercolor="#666666"
   borderopacity="1"
   objecttolerance="10"
   gridtolerance="10"
   guidetolerance="10"
   inkscape:pageopacity="0"
   inkscape:pageshadow="2"
   inkscape:window-width="1009"
   inkscape:window-height="768"
   id="namedview4932"
   showgrid="false"
   inkscape:zoom="29.5"
   inkscape:cx="8.3508279"
   inkscape:cy="7.3638149"
   inkscape:window-x="476"
   inkscape:window-y="123"
   inkscape:window-maximized="0"
   inkscape:current-layer="Layer_1" />
<style
   type="text/css"
   id="style4891">
	.st0{opacity:0.1;enable-background:new    ;}
	.st1{fill:#E5E5E5;}
	.st2{fill:#FFBF0D;}
	.st3{fill:none;}
	.st4{fill:#FFFFFF;}
	.st5{fill:#25B725;}
</style>
<g
   id="Layer_1-2"
   transform="translate(-0.80932204,0)"><path
     d="M 14.125,3.126 14,3 11.999,1 H 4 C 3.45,1 3,1.45 3,2 v 12.618 l -0.531,-0.321 -0.167,0.416 0.991,0.991 c 10e-4,10e-4 0.002,0.003 0.003,0.003 l 0.006,0.006 H 3.304 C 3.484,15.889 3.729,16 4,16 h 10 c 0.55,0 1,-0.45 1,-1 V 4 L 14.125,3.126 z"
     id="path3158"
     inkscape:connector-curvature="0"
     style="opacity:0.1" /><path
     d="M 11,0 H 3 C 2.45,0 2,0.45 2,1 v 13 c 0,0.55 0.45,1 1,1 h 10 c 0.55,0 1,-0.45 1,-1 V 3"
     id="path3160"
     inkscape:connector-curvature="0"
     style="fill:#e5e5e5" /><line
     x1="14"
     y1="3"
     x2="11"
     y2="0"
     id="line3162"
     style="fill:#686868" /><polygon
     points="13,14 3,14 3,1 12,1 13,2 "
     id="polygon3164"
     style="fill:#ffffff" /><path
     d="M 11,2 V 0 l 3,3 H 12 C 11.45,3 11,2.551 11,2 z"
     id="path3166"
     inkscape:connector-curvature="0"
     style="fill:#e5e5e5" /></g><g
   id="g5015"><g
     id="g4910">
		<rect
   x="5.9099998"
   y="4.5"
   class="st5"
   width="4.5999999"
   height="0.52999997"
   id="rect4912"
   style="fill:#25b725" />
		<rect
   x="5.9099998"
   y="7.2199998"
   class="st5"
   width="4.5999999"
   height="0.52999997"
   id="rect4914"
   style="fill:#25b725" />
		<rect
   x="5.9099998"
   y="9.9099998"
   class="st5"
   width="2.3"
   height="0.52999997"
   id="rect4916"
   style="fill:#25b725" />
		<polygon
   class="st5"
   points="3.37,4.57 4.05,5.28 5.2,4.2 4.84,3.81 4.07,4.54 3.76,4.21 "
   id="polygon4918"
   style="fill:#25b725" />
		<polygon
   class="st5"
   points="3.37,7.14 4.05,7.86 5.2,6.77 4.84,6.39 4.07,7.11 3.76,6.78 "
   id="polygon4920"
   style="fill:#25b725" />
		<polygon
   class="st5"
   points="3.37,9.9 4.05,10.61 5.2,9.52 4.84,9.14 4.07,9.86 3.76,9.53 "
   id="polygon4922"
   style="fill:#25b725" />
	</g><path
     class="st0"
     d="m 14.7,14.56 v 1.31 C 14.7,15.93 14.63,16 14.54,16 H 7.75 C 7.66,16 7.61,15.93 7.61,15.87 v -1.31 c 0,-1.1 0.97,-1.97 2.19,-1.97 h 2.7 c 1.22,0 2.2,0.87 2.2,1.97 z"
     id="path4924"
     inkscape:connector-curvature="0"
     style="opacity:0.1;enable-background:new" /><path
     class="st5"
     d="m 14.07,14.56 v 1.31 c 0,0.06 -0.06,0.13 -0.15,0.13 H 7.76 C 7.67,16 7.61,15.93 7.61,15.87 v -1.31 c 0,-1.1 1,-1.97 2.25,-1.97 h 1.96 c 1.25,0 2.25,0.87 2.25,1.97 z"
     id="path4926"
     inkscape:connector-curvature="0"
     style="fill:#25b725" /><path
     class="st0"
     d="M 11.8,12.18 H 11.03 V 8.55 h 0.77 c 1,0 1.81,0.81 1.81,1.81 v 0 c 0,1 -0.81,1.82 -1.81,1.82 z"
     id="path4928"
     inkscape:connector-curvature="0"
     style="opacity:0.1;enable-background:new" /><circle
     class="st5"
     cx="11.12"
     cy="10.36"
     r="1.8099999"
     id="circle4930"
     sodipodi:cx="11.12"
     sodipodi:cy="10.36"
     sodipodi:rx="1.8099999"
     sodipodi:ry="1.8099999"
     style="fill:#25b725" /></g>
</svg>