<?xml version="1.0" encoding="UTF-8" standalone="no"?>
<svg
   xmlns:dc="http://purl.org/dc/elements/1.1/"
   xmlns:cc="http://creativecommons.org/ns#"
   xmlns:rdf="http://www.w3.org/1999/02/22-rdf-syntax-ns#"
   xmlns:svg="http://www.w3.org/2000/svg"
   xmlns="http://www.w3.org/2000/svg"
   id="svg46"
   xml:space="preserve"
   enable-background="new 0 0 16 16"
   viewBox="0 0 16 16"
   height="16px"
   width="16px"
   y="0px"
   x="0px"
   version="1.1"><metadata
     id="metadata52"><rdf:RDF><cc:Work
         rdf:about=""><dc:format>image/svg+xml</dc:format><dc:type
           rdf:resource="http://purl.org/dc/dcmitype/StillImage" /><dc:title></dc:title></cc:Work></rdf:RDF></metadata><defs
     id="defs50" /><g
     id="Layer_1"><path
       style="opacity:0.1;fill-opacity:1;stroke-width:1.88066661"
       id="path42-6"
       d="m 12.549418,9.8882742 3.176446,-3.1764459 c 0.364849,-0.3648493 0.364849,-0.9647819 0,-1.3296313 l -0.665756,-0.6657559 -3.842202,3.8422018 -2.6592627,2.6592631 -3.8422019,3.842201 0.665756,0.665756 c 0.3648493,0.36485 0.9647819,0.36485 1.3296313,0 l 3.1764459,-3.176446 3.1764454,3.176446 c 0.36485,0.36485 0.964782,0.36485 1.329632,0 l 1.329631,-1.329631 c 0.364849,-0.364849 0.364849,-0.964782 0,-1.329631 z" /><path
       style="opacity:0.1;fill-opacity:1;stroke-width:1.88065684"
       id="path40-5"
       d="m 14.396248,4.0496353 c -0.364848,-0.3648471 -0.964777,-0.3648471 -1.329625,0 L 9.8901942,7.2260648 6.7137649,4.0496353 c -0.3648474,-0.3648471 -0.9647769,-0.3648471 -1.3296244,0 L 4.0526356,5.3792594 c -0.3648475,0.3648481 -0.3648475,0.964777 0,1.3296251 L 7.2290649,9.8853129 4.0526356,13.063623 c -0.3648475,0.364847 -0.3648475,0.964777 0,1.329624 L 4.7183881,15.059 8.5605698,11.216819 11.219819,8.5575699 15.062,4.7153879 Z" /><g
       transform="translate(0,-0.0057145)"
       id="g3934"><path
         style="fill:#4d4d4d;stroke-width:1.88066661"
         d="m 12.547303,2.2055781 c -0.364849,-0.3648493 -0.964782,-0.3648493 -1.329631,0 L 8.0412261,5.382024 4.8647802,2.2055781 c -0.3648493,-0.3648493 -0.9647819,-0.3648493 -1.3296313,0 L 2.203637,3.5352094 c -0.3648493,0.3648493 -0.3648493,0.9647819 0,1.3296313 L 5.3800829,8.0412866 2.203637,11.219613 c -0.3648493,0.364849 -0.3648493,0.964782 0,1.329631 L 2.869393,13.215 6.7115948,9.3727985 9.3708574,6.7135359 13.213059,2.8713341 Z"
         id="path40" /><path
         style="fill:#4d4d4d;stroke-width:1.88066661"
         d="m 10.668751,8.0094882 3.176446,-3.1764459 c 0.364849,-0.3648493 0.364849,-0.9647819 0,-1.3296313 L 13.179441,2.8376551 9.3372388,6.6798569 6.6779763,9.3391195 2.8357744,13.181321 l 0.665756,0.665756 c 0.3648493,0.36485 0.9647819,0.36485 1.3296313,0 l 3.1764459,-3.176446 3.1764454,3.176446 c 0.36485,0.36485 0.964782,0.36485 1.329632,0 l 1.329631,-1.329631 c 0.364849,-0.364849 0.364849,-0.964782 0,-1.329631 z"
         id="path42" /></g></g><g
     id="Layer_2" /></svg>