<?xml version="1.0" encoding="UTF-8" standalone="no"?>
<svg
   xmlns:dc="http://purl.org/dc/elements/1.1/"
   xmlns:cc="http://creativecommons.org/ns#"
   xmlns:rdf="http://www.w3.org/1999/02/22-rdf-syntax-ns#"
   xmlns:svg="http://www.w3.org/2000/svg"
   xmlns="http://www.w3.org/2000/svg"
   xmlns:sodipodi="http://sodipodi.sourceforge.net/DTD/sodipodi-0.dtd"
   xmlns:inkscape="http://www.inkscape.org/namespaces/inkscape"
   version="1.1"
   id="Layer_1"
   x="0px"
   y="0px"
   viewBox="0 0 16 16"
   style="enable-background:new 0 0 16 16;"
   xml:space="preserve"
   inkscape:version="0.48.2 r9819"
   width="100%"
   height="100%"
   sodipodi:docname="storageclass.svg"
   inkscape:export-filename="n:\storageclass.png"
   inkscape:export-xdpi="2700"
   inkscape:export-ydpi="2700"><metadata
   id="metadata3117"><rdf:RDF><cc:Work
       rdf:about=""><dc:format>image/svg+xml</dc:format><dc:type
         rdf:resource="http://purl.org/dc/dcmitype/StillImage" /></cc:Work></rdf:RDF></metadata><defs
   id="defs3115" /><sodipodi:namedview
   pagecolor="#ffffff"
   bordercolor="#666666"
   borderopacity="1"
   objecttolerance="10"
   gridtolerance="10"
   guidetolerance="10"
   inkscape:pageopacity="0"
   inkscape:pageshadow="2"
   inkscape:window-width="1889"
   inkscape:window-height="1047"
   id="namedview3113"
   showgrid="false"
   inkscape:zoom="22.627417"
   inkscape:cx="5.3441153"
   inkscape:cy="11.582882"
   inkscape:window-x="0"
   inkscape:window-y="0"
   inkscape:window-maximized="0"
   inkscape:current-layer="g3092" />
<style
   type="text/css"
   id="style3090">
	.st0{opacity:0.1;enable-background:new    ;}
	.st1{fill:#E5E5E5;}
	.st2{fill:#FFBF0D;}
	.st3{fill:none;}
	.st4{fill:#FFFFFF;}
	.st5{fill:#25B725;}
</style>
<g
   id="g3092">
	
	
	
	<g
   transform="translate(0.08623277,0.02319318)"
   id="g4698"><g
     transform="translate(-1.25,0)"
     id="Layer_1-8"><path
       sodipodi:nodetypes="cccsscccscccssscc"
       style="opacity:0.1"
       inkscape:connector-curvature="0"
       id="path3158"
       d="M 14.125,3.126 14,3 11.999,1 4,1 C 3.45,1 3,1.45 3,2 l 0,11.601051 -0.531,-0.321 -0.167,0.416 0.991,0.991 c 10e-4,10e-4 0.002,0.003 0.003,0.003 l 0.006,0.006 0.002,0 c 0.18,0.176 0.425,0.287 0.696,0.287 l 10,0 c 0.55,0 1,-0.45 1,-1 L 15,4 z" /><path
       sodipodi:nodetypes="cssssssc"
       style="fill:#e5e5e5"
       inkscape:connector-curvature="0"
       id="path3160"
       d="M 11,0 3,0 C 2.45,0 2,0.45 2,1 l 0,11.983051 c 0,0.55 0.45,1 1,1 l 10,0 c 0.55,0 1,-0.45 1,-1 L 14,3" /><line
       style="fill:#686868"
       id="line3162"
       y2="0"
       x2="11"
       y1="3"
       x1="14" /><polygon
       transform="matrix(1,0,0,0.94263364,0,0.05736636)"
       style="fill:#ffffff"
       id="polygon3164"
       points="3,1 12,1 13,2 13,14 3,14 " /><path
       style="fill:#e5e5e5"
       inkscape:connector-curvature="0"
       id="path3166"
       d="M 11,2 V 0 l 3,3 H 12 C 11.45,3 11,2.551 11,2 z" /></g><g
     id="Layer_2" /></g><g
   id="g4641"><path
     id="path3107"
     d="M6.4,15.28v0.62C6.4,15.95,6.45,16,6.51,16h3.06c0.03,0,0.05-0.01,0.07-0.03l1.29-1.21   c0.02-0.02,0.05-0.03,0.07-0.03h2.51c0.03,0,0.05-0.01,0.07-0.03l1.63-1.4c0.02-0.02,0.04-0.05,0.04-0.08V10.5   c0-0.06-0.05-0.11-0.11-0.11h-0.57l0.02,2.51l-1.39,1.17l-2.45-0.03l-1.43,1.22L6.4,15.28z"
     class="st0" /><path
     id="path3109"
     d="M11.89,8h0.57c0.06,0,0.11,0.05,0.11,0.11v2.25h-0.67V8z"
     class="st0" /><path
     id="path3111"
     d="M14.75,10.49c-0.03-0.08-0.12-0.13-0.2-0.13H12.1V8.21c0-0.02,0-0.05-0.01-0.08C12.05,8.06,11.98,8,11.89,8   H9.27C9.22,8,9.17,8.02,9.13,8.06L7.78,9.22C7.73,9.25,7.71,9.3,7.71,9.36v2.29c0,0.02,0,0.04,0.01,0.05l-1.25,1.07   c-0.05,0.04-0.07,0.1-0.07,0.15v2.28c0,0.12,0.1,0.2,0.21,0.2h2.62c0.05,0,0.11-0.02,0.14-0.05l1.35-1.16h2.47   c0.01,0,0.01,0,0.01,0c0.05,0,0.11-0.02,0.14-0.05L14.69,13c0.05-0.04,0.07-0.09,0.07-0.14v-2.29   C14.76,10.54,14.76,10.51,14.75,10.49z M9.15,12.72H7.16l0.89-0.76h1.98L9.15,12.72z M10.37,13.97l-0.92,0.78V13l0.92-0.78V13.97z    M10.46,9.17H8.47l0.89-0.76h1.98L10.46,9.17z M10.75,9.45l0.91-0.79v1.76l-0.91,0.78V9.45z M13.11,11.52h-1.98l0.89-0.76H14   L13.11,11.52z M14.33,12.77l-0.91,0.78v-1.74l0.92-0.79L14.33,12.77z"
     class="st2" /></g>
<path
   style="fill:#ffffff"
   d="m 10.760244,10.311077 0,-0.8561599 0.439688,-0.3825408 c 0.241829,-0.2103974 0.443947,-0.3825408 0.449153,-0.3825408 0.0052,0 0.0094,0.3870763 0.0093,0.8601695 l -1.27e-4,0.860169 -0.435014,0.372882 c -0.239259,0.205085 -0.44132,0.375424 -0.449026,0.378531 -0.0077,0.0031 -0.01401,-0.379622 -0.01401,-0.85051 z"
   id="path4748"
   inkscape:connector-curvature="0" /><path
   style="fill:#ffffff"
   d="m 11.590753,11.138988 0.426966,-0.364407 0.974645,0 0.974645,0 -0.426321,0.364407 -0.426321,0.364407 -0.97529,0 -0.97529,0 0.426966,-0.364407 z"
   id="path4750"
   inkscape:connector-curvature="0" /><path
   style="fill:#ffffff"
   d="m 13.422206,12.676978 9.45e-4,-0.860024 0.450863,-0.385763 c 0.247975,-0.212169 0.45378,-0.382846 0.457345,-0.37928 0.0036,0.0036 0.0012,0.391362 -0.0053,0.861772 l -0.01182,0.85529 -0.446473,0.384014 -0.446473,0.384015 9.45e-4,-0.860024 z"
   id="path4752"
   inkscape:connector-curvature="0" /><path
   style="fill:#ffffff"
   d="m 9.4718512,13.862832 0,-0.840157 0.4308932,-0.373935 0.4308936,-0.373935 0.01204,0.818513 c 0.0079,0.540322 -0.0042,0.838137 -0.03588,0.876254 -0.02636,0.03176 -0.225678,0.209768 -0.4429363,0.395579 l -0.3950155,0.337838 0,-0.840157 z"
   id="path4799"
   inkscape:connector-curvature="0" /><path
   style="fill:#ffffff"
   d="m 7.6243458,12.355982 0.4111947,-0.351963 0.9391262,-0.0016 c 0.5165194,-8.75e-4 0.9391262,0.0045 0.9391262,0.01193 0,0.0074 -0.177046,0.166537 -0.3934355,0.353553 l -0.3934355,0.34003 -0.9568855,0 -0.9568854,0 0.4111948,-0.351963 z"
   id="path4801"
   inkscape:connector-curvature="0" /></g>
</svg>