<?xml version="1.0" encoding="utf-8"?>
<svg version="1.1" id="Layer_1" xmlns="http://www.w3.org/2000/svg" xmlns:xlink="http://www.w3.org/1999/xlink" x="0px" y="0px"
	 viewBox="0 0 16 16" style="enable-background:new 0 0 16 16;" xml:space="preserve">
<style type="text/css">
	.st0{opacity:0.1;enable-background:new    ;}
	.st1{fill:#E5E5E5;}
	.st2{fill:#FFBF0D;}
	.st3{fill:none;}
	.st4{fill:#FFFFFF;}
	.st5{fill:#25B725;}
</style>
<g>
	<g id="Layer_1_4_">
		<path class="st0" d="M1.71,13.48H5.5v1.93H2.68c-0.26,0-0.5-0.11-0.67-0.28h0l0-0.01c0,0,0,0,0,0l-0.96-0.95l0.16-0.4l0.51,0.31
			V13.48z"/>
		<path class="st0" d="M13.27,3.85v3.37h-1.93V2.89h-0.96c-0.53,0-0.96-0.43-0.96-0.96V0.96h0.96l1.93,1.93l0.12,0.12L13.27,3.85z"
			/>
		<path class="st1" d="M12.3,2.89v4.33h-0.96V2.89h-0.96c-0.53,0-0.96-0.43-0.96-0.96V0.96h-7.7v12.52H5.5v0.96H1.71
			c-0.26,0-0.5-0.11-0.67-0.28s-0.29-0.41-0.29-0.68V0.96C0.75,0.43,1.18,0,1.71,0h7.7L12.3,2.89z"/>
		<line class="st1" x1="12.3" y1="2.89" x2="9.42" y2="0"/>
		<path class="st1" d="M11.34,1.93v0.96h-0.96c-0.53,0-0.96-0.43-0.96-0.96V0.96h0.96L11.34,1.93z"/>
		<path class="st1" d="M12.3,2.89h-1.93c-0.53,0-0.96-0.43-0.96-0.96V0L12.3,2.89z"/>
	</g>
	<path class="st0" d="M6.4,15.28v0.62C6.4,15.95,6.45,16,6.51,16h3.06c0.03,0,0.05-0.01,0.07-0.03l1.29-1.21
		c0.02-0.02,0.05-0.03,0.07-0.03h2.51c0.03,0,0.05-0.01,0.07-0.03l1.63-1.4c0.02-0.02,0.04-0.05,0.04-0.08V10.5
		c0-0.06-0.05-0.11-0.11-0.11h-0.57l0.02,2.51l-1.39,1.17l-2.45-0.03l-1.43,1.22L6.4,15.28z"/>
	<path class="st0" d="M11.89,8h0.57c0.06,0,0.11,0.05,0.11,0.11v2.25h-0.67V8z"/>
	<path class="st2" d="M14.75,10.49c-0.03-0.08-0.12-0.13-0.2-0.13H12.1V8.21c0-0.02,0-0.05-0.01-0.08C12.05,8.06,11.98,8,11.89,8
		H9.27C9.22,8,9.17,8.02,9.13,8.06L7.78,9.22C7.73,9.25,7.71,9.3,7.71,9.36v2.29c0,0.02,0,0.04,0.01,0.05l-1.25,1.07
		c-0.05,0.04-0.07,0.1-0.07,0.15v2.28c0,0.12,0.1,0.2,0.21,0.2h2.62c0.05,0,0.11-0.02,0.14-0.05l1.35-1.16h2.47
		c0.01,0,0.01,0,0.01,0c0.05,0,0.11-0.02,0.14-0.05L14.69,13c0.05-0.04,0.07-0.09,0.07-0.14v-2.29
		C14.76,10.54,14.76,10.51,14.75,10.49z M9.15,12.72H7.16l0.89-0.76h1.98L9.15,12.72z M10.37,13.97l-0.92,0.78V13l0.92-0.78V13.97z
		 M10.46,9.17H8.47l0.89-0.76h1.98L10.46,9.17z M10.75,9.45l0.91-0.79v1.76l-0.91,0.78V9.45z M13.11,11.52h-1.98l0.89-0.76H14
		L13.11,11.52z M14.33,12.77l-0.91,0.78v-1.74l0.92-0.79L14.33,12.77z"/>
</g>
</svg>
